<svg xmlns="http://www.w3.org/2000/svg" viewBox="0 0 128 128" fill="none">
  <rect width="128" height="128" rx="18" fill="#0f0f13" />
  <path
    d="M92 48c-4-12-18-18-33-15-13 3-20 7-25 7-9 0-16-7-26-8 6 10 4 17 4 22-4 4-7 8-5 13 2 4 7 7 17 6 12 7 27 10 41 6 17-4 24-17 27-31z"
    fill="#1f2236"
  />
  <path
    d="M35 63c4 1 9-3 9-8 0-5-4-9-9-9s-9 4-9 9c0 5 5 8 9 8z"
    fill="#a855f7"
  />
  <circle cx="34" cy="55" r="3" fill="#f5f3ff" />
  <path d="M78 72c-8 6-25 5-37-1 4 11 15 17 27 17 11 0 21-6 27-15-5 0-12-2-17-1z" fill="#a855f7" />
</svg>
